<svg id="visual" viewBox="0 0 900 600" width="900" height="600" xmlns="http://www.w3.org/2000/svg" xmlns:xlink="http://www.w3.org/1999/xlink" version="1.1">

<rect x="0" y="0" width="900" height="600" fill="#ffffff"></rect>
<g fill="#0aff00"><circle r="9" cx="123" cy="321">
</circle><circle r="9" cx="801" cy="470">
</circle><circle r="9" cx="208" cy="298">
</circle><circle r="9" cx="609" cy="575">
</circle><circle r="9" cx="149" cy="368">
    </circle><circle r="9" cx="618" cy="383">
    </circle><circle r="9" cx="423" cy="21">
    </circle><circle r="9" cx="773" cy="521">
    </circle><circle r="9" cx="816" cy="306">
    </circle><circle r="9" cx="547" cy="269">
    </circle><circle r="9" cx="468" cy="523">
    </circle><circle r="9" cx="576" cy="167">
        </circle><circle r="9" cx="34" cy="365">
        </circle><circle r="9" cx="630" cy="515">
            </circle><circle r="9" cx="222" cy="140">
            </circle><circle r="9" cx="586" cy="431">
            </circle><circle r="9" cx="398" cy="554">
            </circle><circle r="9" cx="716" cy="303">
            </circle><circle r="9" cx="541" cy="103">
            </circle><circle r="9" cx="893" cy="376">
            </circle><circle r="9" cx="843" cy="375">
            </circle><circle r="9" cx="625" cy="298">
            </circle><circle r="9" cx="446" cy="463">
            </circle><circle r="9" cx="460" cy="551">
            </circle><circle r="9" cx="555" cy="193">
            </circle><circle r="9" cx="879" cy="4">
            </circle><circle r="9" cx="272" cy="59">
            </circle><circle r="9" cx="871" cy="155">
            </circle><circle r="9" cx="451" cy="356">
            </circle><circle r="9" cx="363" cy="597">
            </circle><circle r="9" cx="28" cy="435">
            </circle><circle r="9" cx="178" cy="466">
            </circle><circle r="9" cx="803" cy="257">
            </circle><circle r="9" cx="732" cy="567">
            </circle><circle r="9" cx="529" cy="444">
            </circle><circle r="9" cx="112" cy="388">
            </circle><circle r="9" cx="363" cy="68">
            </circle><circle r="9" cx="661" cy="181"></circle>
                <circle r="9" cx="747" cy="229"></circle>
                <circle r="9" cx="356" cy="199"></circle>
                <circle r="9" cx="94" cy="410"></circle>
                <circle r="9" cx="86" cy="443"></circle>
                <circle r="9" cx="372" cy="490"></circle>
                <circle r="9" cx="795" cy="420"></circle>
            </g>
            </svg> 