<svg id="visual" viewBox="0 0 900 600" width="900" height="600" xmlns="http://www.w3.org/2000/svg" xmlns:xlink="http://www.w3.org/1999/xlink" version="1.1"><path d="M0 85L16.7 85C33.3 85 66.7 85 100 77C133.3 69 166.7 53 200 46C233.3 39 266.7 41 300 47C333.3 53 366.7 63 400 59C433.3 55 466.7 37 500 29C533.3 21 566.7 23 600 31C633.3 39 666.7 53 700 51C733.3 49 766.7 31 800 25C833.3 19 866.7 25 883.3 28L900 31L900 0L883.3 0C866.7 0 833.3 0 800 0C766.7 0 733.3 0 700 0C666.7 0 633.3 0 600 0C566.7 0 533.3 0 500 0C466.7 0 433.3 0 400 0C366.7 0 333.3 0 300 0C266.7 0 233.3 0 200 0C166.7 0 133.3 0 100 0C66.7 0 33.3 0 16.7 0L0 0Z" fill="#baffac"></path><path d="M0 145L16.7 145C33.3 145 66.7 145 100 149C133.3 153 166.7 161 200 158C233.3 155 266.7 141 300 163C333.3 185 366.7 243 400 248C433.3 253 466.7 205 500 168C533.3 131 566.7 105 600 130C633.3 155 666.7 231 700 245C733.3 259 766.7 211 800 180C833.3 149 866.7 135 883.3 128L900 121L900 29L883.3 26C866.7 23 833.3 17 800 23C766.7 29 733.3 47 700 49C666.7 51 633.3 37 600 29C566.7 21 533.3 19 500 27C466.7 35 433.3 53 400 57C366.7 61 333.3 51 300 45C266.7 39 233.3 37 200 44C166.7 51 133.3 67 100 75C66.7 83 33.3 83 16.7 83L0 83Z" fill="#afff9f"></path><path d="M0 295L16.7 307C33.3 319 66.7 343 100 355C133.3 367 166.7 367 200 350C233.3 333 266.7 299 300 300C333.3 301 366.7 337 400 341C433.3 345 466.7 317 500 312C533.3 307 566.7 325 600 341C633.3 357 666.7 371 700 384C733.3 397 766.7 409 800 393C833.3 377 866.7 333 883.3 311L900 289L900 119L883.3 126C866.7 133 833.3 147 800 178C766.7 209 733.3 257 700 243C666.7 229 633.3 153 600 128C566.7 103 533.3 129 500 166C466.7 203 433.3 251 400 246C366.7 241 333.3 183 300 161C266.7 139 233.3 153 200 156C166.7 159 133.3 151 100 147C66.7 143 33.3 143 16.7 143L0 143Z" fill="#a4ff91"></path><path d="M0 349L16.7 360C33.3 371 66.7 393 100 406C133.3 419 166.7 423 200 408C233.3 393 266.7 359 300 361C333.3 363 366.7 401 400 402C433.3 403 466.7 367 500 358C533.3 349 566.7 367 600 380C633.3 393 666.7 401 700 413C733.3 425 766.7 441 800 427C833.3 413 866.7 369 883.3 347L900 325L900 287L883.3 309C866.7 331 833.3 375 800 391C766.7 407 733.3 395 700 382C666.7 369 633.3 355 600 339C566.7 323 533.3 305 500 310C466.7 315 433.3 343 400 339C366.7 335 333.3 299 300 298C266.7 297 233.3 331 200 348C166.7 365 133.3 365 100 353C66.7 341 33.3 317 16.7 305L0 293Z" fill="#98ff83"></path><path d="M0 457L16.7 461C33.3 465 66.7 473 100 472C133.3 471 166.7 461 200 452C233.3 443 266.7 435 300 442C333.3 449 366.7 471 400 476C433.3 481 466.7 469 500 455C533.3 441 566.7 425 600 427C633.3 429 666.7 449 700 463C733.3 477 766.7 485 800 480C833.3 475 866.7 457 883.3 448L900 439L900 323L883.3 345C866.7 367 833.3 411 800 425C766.7 439 733.3 423 700 411C666.7 399 633.3 391 600 378C566.7 365 533.3 347 500 356C466.7 365 433.3 401 400 400C366.7 399 333.3 361 300 359C266.7 357 233.3 391 200 406C166.7 421 133.3 417 100 404C66.7 391 33.3 369 16.7 358L0 347Z" fill="#8df878"></path><path d="M0 559L16.7 564C33.3 569 66.7 579 100 579C133.3 579 166.7 569 200 560C233.3 551 266.7 543 300 548C333.3 553 366.7 571 400 577C433.3 583 466.7 577 500 566C533.3 555 566.7 539 600 529C633.3 519 666.7 515 700 515C733.3 515 766.7 519 800 521C833.3 523 866.7 523 883.3 523L900 523L900 437L883.3 446C866.7 455 833.3 473 800 478C766.7 483 733.3 475 700 461C666.7 447 633.3 427 600 425C566.7 423 533.3 439 500 453C466.7 467 433.3 479 400 474C366.7 469 333.3 447 300 440C266.7 433 233.3 441 200 450C166.7 459 133.3 469 100 470C66.7 471 33.3 463 16.7 459L0 455Z" fill="#82f16c"></path><path d="M0 601L16.7 601C33.3 601 66.7 601 100 601C133.3 601 166.7 601 200 601C233.3 601 266.7 601 300 601C333.3 601 366.7 601 400 601C433.3 601 466.7 601 500 601C533.3 601 566.7 601 600 601C633.3 601 666.7 601 700 601C733.3 601 766.7 601 800 601C833.3 601 866.7 601 883.3 601L900 601L900 521L883.3 521C866.7 521 833.3 521 800 519C766.7 517 733.3 513 700 513C666.7 513 633.3 517 600 527C566.7 537 533.3 553 500 564C466.7 575 433.3 581 400 575C366.7 569 333.3 551 300 546C266.7 541 233.3 549 200 558C166.7 567 133.3 577 100 577C66.7 577 33.3 567 16.7 562L0 557Z" fill="#77ea61"></path></svg>