<?xml version="1.0" encoding="UTF-8"?><svg id="a" xmlns="http://www.w3.org/2000/svg" xmlns:xlink="http://www.w3.org/1999/xlink" viewBox="0 0 1045.27 697.13"><defs><style>.f{fill:url(#e);}.g{fill:url(#c);}.h{stroke-linecap:square;stroke-width:23px;}.h,.i{stroke:#fff;}.h,.i,.j,.k{fill:none;stroke-linejoin:round;}.l{fill:#fff;}.i,.j,.k{stroke-linecap:round;stroke-width:4px;}.j{stroke:url(#d);}.k{stroke:url(#b);}</style><linearGradient id="b" x1="271.33" y1="205.87" x2="348.68" y2="205.87" gradientTransform="translate(0 696.5) scale(1 -1)" gradientUnits="userSpaceOnUse"><stop offset="0" stop-color="#f57f3b"/><stop offset=".37" stop-color="#ec1776"/><stop offset=".82" stop-color="#704d9f"/><stop offset="1" stop-color="#485ba9"/></linearGradient><linearGradient id="c" x1="754.23" y1="210.51" x2="776.87" y2="186.96" xlink:href="#b"/><linearGradient id="d" x1="416.17" y1="603.36" x2="490.31" y2="603.36" xlink:href="#b"/><linearGradient id="e" x1="423.98" y1="603.87" x2="490.85" y2="603.87" xlink:href="#b"/></defs><g><path class="i" d="M235.53,566.74v4.35c0,11.47,8.92,20.76,19.93,20.76h6.64"/><path class="i" d="M232.21,541.12v-18.47c0-17.2,13.38-31.14,29.89-31.14h8.07m41.74,34.67v14.96"/><path class="i" d="M252.13,533.76c-1.58-.47-3.25-.73-4.98-.73-10.09,0-18.26,8.52-18.26,19.03s8.18,19.03,18.26,19.03c1.73,0,3.4-.27,4.98-.73v-36.59Z"/><path class="i" d="M291.98,570.36c1.58,.47,3.25,.73,4.98,.73,10.09,0,18.26-8.52,18.26-19.03s-8.18-19.03-18.26-19.03c-1.73,0-3.4,.27-4.98,.73v36.59Z"/><path class="i" d="M282.02,588.39h-19.93v6.92h19.93v-6.92Z"/><path class="i" d="M282.02,588.39h-19.93v6.92h19.93v-6.92Z"/><path class="k" d="M335.97,512.68c5.93-.66,10.58-5.73,10.58-12.13s-4.66-11.47-10.58-12.13c-1.06-11.25-10.16-19.84-21.16-19.84-9.52,0-17.56,6.61-20.32,15.65-6.35,1.1-11.43,7.06-11.43,14.11,0,7.5,5.5,13.67,12.7,14.33h40.21Z"/></g><g><path class="i" d="M796.61,508.95c.49-4.1,.74-8.23,.76-12.36,0-34.13-14.76-61.79-32.96-61.79s-32.96,27.67-32.96,61.79,14.76,61.79,32.96,61.79c8.65,0,16.48-6.28,22.35-16.48"/><path class="i" d="M752.06,464.4c4.1-.49,8.23-.74,12.36-.76,34.13,0,61.79,14.76,61.79,32.96s-27.67,32.96-61.79,32.96-61.79-14.76-61.79-32.96c0-8.65,6.28-16.48,16.48-22.35"/><path class="g" d="M764.42,512.68c8.88,0,16.08-7.2,16.08-16.08s-7.2-16.08-16.08-16.08-16.08,7.2-16.08,16.08,7.2,16.08,16.08,16.08Z"/></g><g><circle class="i" cx="533.18" cy="57.58" r="11"/><path class="i" d="M476.46,51.66c0-2.17,.41-4.24,1.15-6.14,2.46-6.31,8.6-10.79,15.78-10.79,9.35,0,16.93,7.58,16.93,16.93,0,7.01-4.26,13.02-10.33,15.6"/><path class="i" d="M519.64,78.98h27.93c2.81,0,5.08,2.27,5.08,5.08v32.71h0s0,18.65-19.72,18.65c-4.43,.3-11.6-2.49-11.6-2.49"/><path class="i" d="M500.17,78.75h16.93c2.8,0,5.08,2.27,5.08,5.08v41.4h0s0,22.94-30.47,22.94c-16.33,0-23.91-6.58-27.43-12.7"/><rect class="j" x="427.37" y="61.82" width="60.95" height="62.64"/><path class="f" d="M455.25,111.59h4.5c.49,0,.81-.33,.81-.81v-31.69h7.69c.49,0,.81-.33,.81-.81v-3.79c0-.49-.33-.81-.81-.81h-21.51c-.49,0-.76,.33-.76,.81v3.79c0,.49,.27,.81,.76,.81h7.75v31.69c0,.49,.27,.81,.76,.81Z"/></g><g><path class="h" d="M623.06,111.18c58.48,24.69,107.06,68.23,137.97,123.67,22.82,40.92,35.06,86.62,35.99,132.97"/><polygon class="l" points="762.52 355.91 793.7 417.24 831.23 359.57 762.52 355.91"/></g><g><path class="h" d="M702.62,595.31c-48.06,41.46-108.64,65.69-172.04,68.81-46.79,2.3-93.18-7-135.14-26.72"/><polygon class="l" points="421.43 611.76 352.63 612.51 387.67 671.72 421.43 611.76"/></g><g><path class="h" d="M232.38,447.44c-14.87-61.71-8.68-126.66,17.57-184.45,19.37-42.66,48.87-79.65,85.61-107.92"/><polygon class="l" points="346.46 189.9 377.28 128.39 308.6 132.44 346.46 189.9"/></g></svg>